<mxfile host="app.diagrams.net" modified="2022-01-12T07:37:06.130Z" agent="5.0 (Macintosh; Intel Mac OS X 10_15_7) AppleWebKit/537.36 (KHTML, like Gecko) Chrome/97.0.4692.71 Safari/537.36" etag="5EvZ_5HSBqyiqWPLwKfy" version="16.2.4" type="github">
  <diagram id="RXKRDR6QaVRBC17R6ypi" name="Page-1">
    <mxGraphModel dx="2253" dy="714" grid="1" gridSize="10" guides="1" tooltips="1" connect="1" arrows="1" fold="1" page="1" pageScale="1" pageWidth="827" pageHeight="1169" math="0" shadow="0">
      <root>
        <mxCell id="0" />
        <mxCell id="1" parent="0" />
        <mxCell id="Xtj5T6NicF1I4lS9QoV7-12" value="" style="rounded=1;whiteSpace=wrap;html=1;dashed=1;" vertex="1" parent="1">
          <mxGeometry x="160" y="290" width="440" height="180" as="geometry" />
        </mxCell>
        <mxCell id="Xtj5T6NicF1I4lS9QoV7-66" value="" style="rounded=1;whiteSpace=wrap;html=1;dashed=1;" vertex="1" parent="1">
          <mxGeometry x="160" y="478" width="440" height="192" as="geometry" />
        </mxCell>
        <mxCell id="Xtj5T6NicF1I4lS9QoV7-1" value="" style="rounded=1;whiteSpace=wrap;html=1;dashed=1;" vertex="1" parent="1">
          <mxGeometry x="-90" y="300" width="180" height="360" as="geometry" />
        </mxCell>
        <mxCell id="Xtj5T6NicF1I4lS9QoV7-68" style="edgeStyle=orthogonalEdgeStyle;rounded=0;orthogonalLoop=1;jettySize=auto;html=1;exitX=1;exitY=0.5;exitDx=0;exitDy=0;entryX=-0.005;entryY=0.411;entryDx=0;entryDy=0;entryPerimeter=0;fontSize=13;fillColor=#d5e8d4;strokeColor=#000000;" edge="1" parent="1" source="Xtj5T6NicF1I4lS9QoV7-3" target="Xtj5T6NicF1I4lS9QoV7-12">
          <mxGeometry relative="1" as="geometry" />
        </mxCell>
        <mxCell id="Xtj5T6NicF1I4lS9QoV7-3" value="CN" style="rounded=0;whiteSpace=wrap;html=1;fillColor=#d5e8d4;strokeColor=#82b366;" vertex="1" parent="1">
          <mxGeometry x="-66" y="334" width="120" height="60" as="geometry" />
        </mxCell>
        <mxCell id="Xtj5T6NicF1I4lS9QoV7-71" style="edgeStyle=orthogonalEdgeStyle;curved=1;rounded=0;orthogonalLoop=1;jettySize=auto;html=1;exitX=1;exitY=0.5;exitDx=0;exitDy=0;entryX=0;entryY=0.5;entryDx=0;entryDy=0;fontSize=13;" edge="1" parent="1" source="Xtj5T6NicF1I4lS9QoV7-4" target="Xtj5T6NicF1I4lS9QoV7-66">
          <mxGeometry relative="1" as="geometry" />
        </mxCell>
        <mxCell id="Xtj5T6NicF1I4lS9QoV7-4" value="CN standby" style="rounded=0;whiteSpace=wrap;html=1;fillColor=#dae8fc;strokeColor=#6c8ebf;" vertex="1" parent="1">
          <mxGeometry x="-66" y="417" width="120" height="60" as="geometry" />
        </mxCell>
        <mxCell id="Xtj5T6NicF1I4lS9QoV7-8" value="" style="endArrow=classic;html=1;rounded=0;exitX=1;exitY=0.5;exitDx=0;exitDy=0;entryX=0;entryY=0.5;entryDx=0;entryDy=0;" edge="1" parent="1" source="Xtj5T6NicF1I4lS9QoV7-9" target="Xtj5T6NicF1I4lS9QoV7-3">
          <mxGeometry width="50" height="50" relative="1" as="geometry">
            <mxPoint x="-210" y="378" as="sourcePoint" />
            <mxPoint x="-140" y="370" as="targetPoint" />
          </mxGeometry>
        </mxCell>
        <mxCell id="Xtj5T6NicF1I4lS9QoV7-9" value="RW" style="text;html=1;strokeColor=none;fillColor=none;align=center;verticalAlign=middle;whiteSpace=wrap;rounded=0;dashed=1;" vertex="1" parent="1">
          <mxGeometry x="-187" y="349" width="60" height="30" as="geometry" />
        </mxCell>
        <mxCell id="Xtj5T6NicF1I4lS9QoV7-13" value="" style="rounded=0;whiteSpace=wrap;html=1;" vertex="1" parent="1">
          <mxGeometry x="174" y="313" width="120" height="120" as="geometry" />
        </mxCell>
        <mxCell id="Xtj5T6NicF1I4lS9QoV7-14" value="tab_001" style="rounded=0;whiteSpace=wrap;html=1;dashed=1;fillColor=#ffe6cc;strokeColor=#d79b00;" vertex="1" parent="1">
          <mxGeometry x="184" y="333" width="100" height="30" as="geometry" />
        </mxCell>
        <mxCell id="Xtj5T6NicF1I4lS9QoV7-15" value="tab_005" style="rounded=0;whiteSpace=wrap;html=1;dashed=1;fillColor=#fff2cc;strokeColor=#d6b656;" vertex="1" parent="1">
          <mxGeometry x="184" y="370" width="100" height="30" as="geometry" />
        </mxCell>
        <mxCell id="Xtj5T6NicF1I4lS9QoV7-16" value="..." style="text;html=1;strokeColor=none;fillColor=none;align=center;verticalAlign=middle;whiteSpace=wrap;rounded=0;dashed=1;" vertex="1" parent="1">
          <mxGeometry x="202" y="403" width="60" height="30" as="geometry" />
        </mxCell>
        <mxCell id="Xtj5T6NicF1I4lS9QoV7-17" value="" style="rounded=0;whiteSpace=wrap;html=1;" vertex="1" parent="1">
          <mxGeometry x="307" y="313" width="120" height="120" as="geometry" />
        </mxCell>
        <mxCell id="Xtj5T6NicF1I4lS9QoV7-18" value="tab_002" style="rounded=0;whiteSpace=wrap;html=1;dashed=1;fillColor=#f8cecc;strokeColor=#b85450;" vertex="1" parent="1">
          <mxGeometry x="317" y="333" width="100" height="30" as="geometry" />
        </mxCell>
        <mxCell id="Xtj5T6NicF1I4lS9QoV7-19" value="tab_006" style="rounded=0;whiteSpace=wrap;html=1;dashed=1;fillColor=#e1d5e7;strokeColor=#9673a6;" vertex="1" parent="1">
          <mxGeometry x="317" y="370" width="100" height="30" as="geometry" />
        </mxCell>
        <mxCell id="Xtj5T6NicF1I4lS9QoV7-20" value="..." style="text;html=1;strokeColor=none;fillColor=none;align=center;verticalAlign=middle;whiteSpace=wrap;rounded=0;dashed=1;" vertex="1" parent="1">
          <mxGeometry x="335" y="403" width="60" height="30" as="geometry" />
        </mxCell>
        <mxCell id="Xtj5T6NicF1I4lS9QoV7-21" value="" style="rounded=0;whiteSpace=wrap;html=1;" vertex="1" parent="1">
          <mxGeometry x="470" y="313" width="120" height="120" as="geometry" />
        </mxCell>
        <mxCell id="Xtj5T6NicF1I4lS9QoV7-22" value="tab_003" style="rounded=0;whiteSpace=wrap;html=1;dashed=1;fillColor=#b0e3e6;strokeColor=#0e8088;" vertex="1" parent="1">
          <mxGeometry x="480" y="333" width="100" height="30" as="geometry" />
        </mxCell>
        <mxCell id="Xtj5T6NicF1I4lS9QoV7-23" value="tab_004" style="rounded=0;whiteSpace=wrap;html=1;dashed=1;fillColor=#b1ddf0;strokeColor=#10739e;" vertex="1" parent="1">
          <mxGeometry x="480" y="370" width="100" height="30" as="geometry" />
        </mxCell>
        <mxCell id="Xtj5T6NicF1I4lS9QoV7-24" value="..." style="text;html=1;strokeColor=none;fillColor=none;align=center;verticalAlign=middle;whiteSpace=wrap;rounded=0;dashed=1;" vertex="1" parent="1">
          <mxGeometry x="498" y="403" width="60" height="30" as="geometry" />
        </mxCell>
        <mxCell id="Xtj5T6NicF1I4lS9QoV7-25" value="..." style="text;html=1;strokeColor=none;fillColor=none;align=center;verticalAlign=middle;whiteSpace=wrap;rounded=0;dashed=1;" vertex="1" parent="1">
          <mxGeometry x="417" y="363" width="60" height="30" as="geometry" />
        </mxCell>
        <mxCell id="Xtj5T6NicF1I4lS9QoV7-26" value="worker node1" style="text;html=1;strokeColor=none;fillColor=none;align=center;verticalAlign=middle;whiteSpace=wrap;rounded=0;dashed=1;" vertex="1" parent="1">
          <mxGeometry x="180" y="440" width="100" height="30" as="geometry" />
        </mxCell>
        <mxCell id="Xtj5T6NicF1I4lS9QoV7-27" value="worker node2" style="text;html=1;strokeColor=none;fillColor=none;align=center;verticalAlign=middle;whiteSpace=wrap;rounded=0;dashed=1;" vertex="1" parent="1">
          <mxGeometry x="320" y="440" width="90" height="30" as="geometry" />
        </mxCell>
        <mxCell id="Xtj5T6NicF1I4lS9QoV7-28" value="worker nodeN" style="text;html=1;strokeColor=none;fillColor=none;align=center;verticalAlign=middle;whiteSpace=wrap;rounded=0;dashed=1;" vertex="1" parent="1">
          <mxGeometry x="480" y="440" width="100" height="30" as="geometry" />
        </mxCell>
        <mxCell id="Xtj5T6NicF1I4lS9QoV7-29" value="" style="rounded=0;whiteSpace=wrap;html=1;" vertex="1" parent="1">
          <mxGeometry x="174" y="503" width="120" height="120" as="geometry" />
        </mxCell>
        <mxCell id="Xtj5T6NicF1I4lS9QoV7-30" value="tab_001" style="rounded=0;whiteSpace=wrap;html=1;dashed=1;fillColor=#ffe6cc;strokeColor=#d79b00;" vertex="1" parent="1">
          <mxGeometry x="184" y="523" width="100" height="30" as="geometry" />
        </mxCell>
        <mxCell id="Xtj5T6NicF1I4lS9QoV7-31" value="tab_005" style="rounded=0;whiteSpace=wrap;html=1;dashed=1;fillColor=#fff2cc;strokeColor=#d6b656;" vertex="1" parent="1">
          <mxGeometry x="184" y="560" width="100" height="30" as="geometry" />
        </mxCell>
        <mxCell id="Xtj5T6NicF1I4lS9QoV7-32" value="..." style="text;html=1;strokeColor=none;fillColor=none;align=center;verticalAlign=middle;whiteSpace=wrap;rounded=0;dashed=1;" vertex="1" parent="1">
          <mxGeometry x="202" y="593" width="60" height="30" as="geometry" />
        </mxCell>
        <mxCell id="Xtj5T6NicF1I4lS9QoV7-33" value="" style="rounded=0;whiteSpace=wrap;html=1;" vertex="1" parent="1">
          <mxGeometry x="307" y="503" width="120" height="120" as="geometry" />
        </mxCell>
        <mxCell id="Xtj5T6NicF1I4lS9QoV7-34" value="tab_002" style="rounded=0;whiteSpace=wrap;html=1;dashed=1;fillColor=#f8cecc;strokeColor=#b85450;" vertex="1" parent="1">
          <mxGeometry x="317" y="523" width="100" height="30" as="geometry" />
        </mxCell>
        <mxCell id="Xtj5T6NicF1I4lS9QoV7-35" value="tab_006" style="rounded=0;whiteSpace=wrap;html=1;dashed=1;fillColor=#e1d5e7;strokeColor=#9673a6;" vertex="1" parent="1">
          <mxGeometry x="317" y="560" width="100" height="30" as="geometry" />
        </mxCell>
        <mxCell id="Xtj5T6NicF1I4lS9QoV7-36" value="..." style="text;html=1;strokeColor=none;fillColor=none;align=center;verticalAlign=middle;whiteSpace=wrap;rounded=0;dashed=1;" vertex="1" parent="1">
          <mxGeometry x="335" y="593" width="60" height="30" as="geometry" />
        </mxCell>
        <mxCell id="Xtj5T6NicF1I4lS9QoV7-37" value="" style="rounded=0;whiteSpace=wrap;html=1;" vertex="1" parent="1">
          <mxGeometry x="470" y="503" width="120" height="120" as="geometry" />
        </mxCell>
        <mxCell id="Xtj5T6NicF1I4lS9QoV7-38" value="tab_003" style="rounded=0;whiteSpace=wrap;html=1;dashed=1;fillColor=#b0e3e6;strokeColor=#0e8088;" vertex="1" parent="1">
          <mxGeometry x="480" y="523" width="100" height="30" as="geometry" />
        </mxCell>
        <mxCell id="Xtj5T6NicF1I4lS9QoV7-39" value="tab_004" style="rounded=0;whiteSpace=wrap;html=1;dashed=1;fillColor=#b1ddf0;strokeColor=#10739e;" vertex="1" parent="1">
          <mxGeometry x="480" y="560" width="100" height="30" as="geometry" />
        </mxCell>
        <mxCell id="Xtj5T6NicF1I4lS9QoV7-40" value="..." style="text;html=1;strokeColor=none;fillColor=none;align=center;verticalAlign=middle;whiteSpace=wrap;rounded=0;dashed=1;" vertex="1" parent="1">
          <mxGeometry x="498" y="593" width="60" height="30" as="geometry" />
        </mxCell>
        <mxCell id="Xtj5T6NicF1I4lS9QoV7-41" value="..." style="text;html=1;strokeColor=none;fillColor=none;align=center;verticalAlign=middle;whiteSpace=wrap;rounded=0;dashed=1;" vertex="1" parent="1">
          <mxGeometry x="417" y="553" width="60" height="30" as="geometry" />
        </mxCell>
        <mxCell id="Xtj5T6NicF1I4lS9QoV7-42" value="worker node1 standby" style="text;html=1;strokeColor=none;fillColor=none;align=center;verticalAlign=middle;whiteSpace=wrap;rounded=0;dashed=1;" vertex="1" parent="1">
          <mxGeometry x="170" y="630" width="120" height="30" as="geometry" />
        </mxCell>
        <mxCell id="Xtj5T6NicF1I4lS9QoV7-43" value="" style="endArrow=classic;html=1;rounded=0;strokeWidth=3;" edge="1" parent="1">
          <mxGeometry width="50" height="50" relative="1" as="geometry">
            <mxPoint x="231.5" y="430" as="sourcePoint" />
            <mxPoint x="231.5" y="510" as="targetPoint" />
          </mxGeometry>
        </mxCell>
        <mxCell id="Xtj5T6NicF1I4lS9QoV7-44" value="" style="endArrow=classic;html=1;rounded=0;strokeWidth=3;" edge="1" parent="1">
          <mxGeometry width="50" height="50" relative="1" as="geometry">
            <mxPoint x="364.5" y="430" as="sourcePoint" />
            <mxPoint x="364.5" y="510" as="targetPoint" />
          </mxGeometry>
        </mxCell>
        <mxCell id="Xtj5T6NicF1I4lS9QoV7-45" value="" style="endArrow=classic;html=1;rounded=0;strokeWidth=3;" edge="1" parent="1">
          <mxGeometry width="50" height="50" relative="1" as="geometry">
            <mxPoint x="529.5" y="430" as="sourcePoint" />
            <mxPoint x="529.5" y="510" as="targetPoint" />
          </mxGeometry>
        </mxCell>
        <mxCell id="Xtj5T6NicF1I4lS9QoV7-46" value="流复制" style="text;html=1;strokeColor=none;fillColor=none;align=center;verticalAlign=middle;whiteSpace=wrap;rounded=0;dashed=1;" vertex="1" parent="1">
          <mxGeometry x="220" y="466" width="60" height="30" as="geometry" />
        </mxCell>
        <mxCell id="Xtj5T6NicF1I4lS9QoV7-47" value="流复制" style="text;html=1;strokeColor=none;fillColor=none;align=center;verticalAlign=middle;whiteSpace=wrap;rounded=0;dashed=1;" vertex="1" parent="1">
          <mxGeometry x="354" y="466" width="60" height="30" as="geometry" />
        </mxCell>
        <mxCell id="Xtj5T6NicF1I4lS9QoV7-48" value="流复制" style="text;html=1;strokeColor=none;fillColor=none;align=center;verticalAlign=middle;whiteSpace=wrap;rounded=0;dashed=1;" vertex="1" parent="1">
          <mxGeometry x="520" y="466" width="60" height="30" as="geometry" />
        </mxCell>
        <mxCell id="Xtj5T6NicF1I4lS9QoV7-49" value="sql&amp;nbsp; layer" style="text;html=1;strokeColor=none;fillColor=none;align=center;verticalAlign=middle;whiteSpace=wrap;rounded=0;dashed=1;fontStyle=1;fontSize=13;" vertex="1" parent="1">
          <mxGeometry x="-77" y="294" width="60" height="30" as="geometry" />
        </mxCell>
        <mxCell id="Xtj5T6NicF1I4lS9QoV7-50" value="storage&amp;nbsp; layer" style="text;html=1;strokeColor=none;fillColor=none;align=center;verticalAlign=middle;whiteSpace=wrap;rounded=0;dashed=1;fontStyle=1;fontSize=13;" vertex="1" parent="1">
          <mxGeometry x="404" y="283" width="106" height="30" as="geometry" />
        </mxCell>
        <mxCell id="Xtj5T6NicF1I4lS9QoV7-51" value="worker node2 standby" style="text;html=1;strokeColor=none;fillColor=none;align=center;verticalAlign=middle;whiteSpace=wrap;rounded=0;dashed=1;" vertex="1" parent="1">
          <mxGeometry x="307" y="630" width="120" height="30" as="geometry" />
        </mxCell>
        <mxCell id="Xtj5T6NicF1I4lS9QoV7-52" value="worker nodeN standby" style="text;html=1;strokeColor=none;fillColor=none;align=center;verticalAlign=middle;whiteSpace=wrap;rounded=0;dashed=1;" vertex="1" parent="1">
          <mxGeometry x="468" y="630" width="120" height="30" as="geometry" />
        </mxCell>
        <mxCell id="Xtj5T6NicF1I4lS9QoV7-53" value="&lt;font style=&quot;font-size: 14px&quot;&gt;&lt;b&gt;数据节点读写分离&lt;/b&gt;&lt;/font&gt;" style="text;html=1;strokeColor=none;fillColor=none;align=center;verticalAlign=middle;whiteSpace=wrap;rounded=0;dashed=1;strokeWidth=5;" vertex="1" parent="1">
          <mxGeometry x="42" y="670" width="160" height="30" as="geometry" />
        </mxCell>
        <mxCell id="Xtj5T6NicF1I4lS9QoV7-70" style="edgeStyle=orthogonalEdgeStyle;curved=1;rounded=0;orthogonalLoop=1;jettySize=auto;html=1;exitX=1;exitY=0.5;exitDx=0;exitDy=0;entryX=0.002;entryY=0.439;entryDx=0;entryDy=0;entryPerimeter=0;fontSize=13;strokeColor=#000000;" edge="1" parent="1" source="Xtj5T6NicF1I4lS9QoV7-56" target="Xtj5T6NicF1I4lS9QoV7-12">
          <mxGeometry relative="1" as="geometry" />
        </mxCell>
        <mxCell id="Xtj5T6NicF1I4lS9QoV7-56" value="CN standby" style="rounded=0;whiteSpace=wrap;html=1;fillColor=#dae8fc;strokeColor=#6c8ebf;" vertex="1" parent="1">
          <mxGeometry x="-66" y="494" width="120" height="60" as="geometry" />
        </mxCell>
        <mxCell id="Xtj5T6NicF1I4lS9QoV7-72" style="edgeStyle=orthogonalEdgeStyle;curved=1;rounded=0;orthogonalLoop=1;jettySize=auto;html=1;exitX=1;exitY=0.5;exitDx=0;exitDy=0;fontSize=13;" edge="1" parent="1" source="Xtj5T6NicF1I4lS9QoV7-57">
          <mxGeometry relative="1" as="geometry">
            <mxPoint x="160" y="580" as="targetPoint" />
          </mxGeometry>
        </mxCell>
        <mxCell id="Xtj5T6NicF1I4lS9QoV7-57" value="CN standby" style="rounded=0;whiteSpace=wrap;html=1;fillColor=#dae8fc;strokeColor=#6c8ebf;" vertex="1" parent="1">
          <mxGeometry x="-66" y="568.5" width="120" height="60" as="geometry" />
        </mxCell>
        <mxCell id="Xtj5T6NicF1I4lS9QoV7-60" value="" style="endArrow=classic;html=1;rounded=0;exitX=1;exitY=0.5;exitDx=0;exitDy=0;entryX=0;entryY=0.5;entryDx=0;entryDy=0;" edge="1" parent="1" source="Xtj5T6NicF1I4lS9QoV7-61">
          <mxGeometry width="50" height="50" relative="1" as="geometry">
            <mxPoint x="-210" y="461" as="sourcePoint" />
            <mxPoint x="-66" y="433" as="targetPoint" />
          </mxGeometry>
        </mxCell>
        <mxCell id="Xtj5T6NicF1I4lS9QoV7-61" value="RO" style="text;html=1;strokeColor=none;fillColor=none;align=center;verticalAlign=middle;whiteSpace=wrap;rounded=0;dashed=1;" vertex="1" parent="1">
          <mxGeometry x="-187" y="418" width="60" height="30" as="geometry" />
        </mxCell>
        <mxCell id="Xtj5T6NicF1I4lS9QoV7-62" value="" style="endArrow=classic;html=1;rounded=0;exitX=1;exitY=0.5;exitDx=0;exitDy=0;entryX=0;entryY=0.5;entryDx=0;entryDy=0;" edge="1" parent="1" source="Xtj5T6NicF1I4lS9QoV7-63">
          <mxGeometry width="50" height="50" relative="1" as="geometry">
            <mxPoint x="-210" y="552" as="sourcePoint" />
            <mxPoint x="-66" y="524" as="targetPoint" />
          </mxGeometry>
        </mxCell>
        <mxCell id="Xtj5T6NicF1I4lS9QoV7-63" value="RW" style="text;html=1;strokeColor=none;fillColor=none;align=center;verticalAlign=middle;whiteSpace=wrap;rounded=0;dashed=1;" vertex="1" parent="1">
          <mxGeometry x="-187" y="509" width="60" height="30" as="geometry" />
        </mxCell>
        <mxCell id="Xtj5T6NicF1I4lS9QoV7-64" value="" style="endArrow=classic;html=1;rounded=0;exitX=1;exitY=0.5;exitDx=0;exitDy=0;entryX=0;entryY=0.5;entryDx=0;entryDy=0;" edge="1" parent="1" source="Xtj5T6NicF1I4lS9QoV7-65">
          <mxGeometry width="50" height="50" relative="1" as="geometry">
            <mxPoint x="-210" y="623" as="sourcePoint" />
            <mxPoint x="-66" y="595" as="targetPoint" />
          </mxGeometry>
        </mxCell>
        <mxCell id="Xtj5T6NicF1I4lS9QoV7-65" value="RO" style="text;html=1;strokeColor=none;fillColor=none;align=center;verticalAlign=middle;whiteSpace=wrap;rounded=0;dashed=1;" vertex="1" parent="1">
          <mxGeometry x="-187" y="580" width="60" height="30" as="geometry" />
        </mxCell>
        <mxCell id="Xtj5T6NicF1I4lS9QoV7-67" value="storage standby" style="text;html=1;strokeColor=none;fillColor=none;align=center;verticalAlign=middle;whiteSpace=wrap;rounded=0;dashed=1;fontStyle=1;fontSize=13;" vertex="1" parent="1">
          <mxGeometry x="400" y="479" width="120" height="30" as="geometry" />
        </mxCell>
      </root>
    </mxGraphModel>
  </diagram>
</mxfile>
